<?xml version="1.0" encoding="utf-8"?>
<!-- Generator: Adobe Illustrator 22.0.1, SVG Export Plug-In . SVG Version: 6.00 Build 0)  -->
<svg version="1.1" id="Layer_1" xmlns="http://www.w3.org/2000/svg" xmlns:xlink="http://www.w3.org/1999/xlink" x="0px" y="0px"
	 viewBox="0 0 350.7 150" style="enable-background:new 0 0 350.7 150;" xml:space="preserve">
<style type="text/css">
	.st0{clip-path:url(#SVGID_2_);}
	.st1{opacity:0;clip-path:url(#SVGID_4_);fill:#FFFFFF;}
	.st2{clip-path:url(#SVGID_6_);}
	.st3{clip-path:url(#SVGID_8_);fill:#FFFFFF;}
	.st4{clip-path:url(#SVGID_10_);}
	.st5{opacity:0;clip-path:url(#SVGID_12_);fill:#FFFFFF;}
	.st6{clip-path:url(#SVGID_14_);}
	.st7{clip-path:url(#SVGID_16_);fill:#FD5454;}
	.st8{clip-path:url(#SVGID_18_);}
	.st9{opacity:0;clip-path:url(#SVGID_20_);fill:#FFFFFF;}
	.st10{clip-path:url(#SVGID_22_);}
	.st11{clip-path:url(#SVGID_24_);fill:#FFFFFF;}
	.st12{clip-path:url(#SVGID_26_);}
	.st13{opacity:0;clip-path:url(#SVGID_28_);fill:#FFFFFF;}
	.st14{clip-path:url(#SVGID_30_);}
	.st15{clip-path:url(#SVGID_32_);fill:#FD5454;}
	.st16{clip-path:url(#SVGID_34_);}
	.st17{opacity:0;clip-path:url(#SVGID_36_);fill:#FFFFFF;}
	.st18{clip-path:url(#SVGID_38_);}
	.st19{clip-path:url(#SVGID_40_);}
	.st20{clip-path:url(#SVGID_42_);}
	.st21{opacity:0;clip-path:url(#SVGID_44_);fill:#FFFFFF;}
	.st22{clip-path:url(#SVGID_46_);}
	.st23{clip-path:url(#SVGID_48_);fill:#FD5454;}
	.st24{clip-path:url(#SVGID_50_);}
	.st25{opacity:0;clip-path:url(#SVGID_52_);fill:#FFFFFF;}
	.st26{clip-path:url(#SVGID_54_);}
	.st27{clip-path:url(#SVGID_56_);}
	.st28{clip-path:url(#SVGID_58_);}
	.st29{opacity:0;clip-path:url(#SVGID_60_);fill:#FFFFFF;}
	.st30{clip-path:url(#SVGID_62_);}
	.st31{clip-path:url(#SVGID_64_);fill:#FD5454;}
	.st32{clip-path:url(#SVGID_66_);}
	.st33{opacity:0;clip-path:url(#SVGID_68_);fill:#FFFFFF;}
	.st34{clip-path:url(#SVGID_70_);}
	.st35{clip-path:url(#SVGID_72_);fill:#FFFFFF;}
	.st36{clip-path:url(#SVGID_74_);}
	.st37{opacity:0;clip-path:url(#SVGID_76_);fill:#FFFFFF;}
	.st38{clip-path:url(#SVGID_78_);}
	.st39{clip-path:url(#SVGID_80_);fill:#FD5454;}
	.st40{clip-path:url(#SVGID_82_);}
	.st41{opacity:0;clip-path:url(#SVGID_84_);fill:#FFFFFF;}
	.st42{clip-path:url(#SVGID_86_);}
	.st43{clip-path:url(#SVGID_88_);fill:#FFFFFF;}
	.st44{clip-path:url(#SVGID_90_);}
	.st45{opacity:0;clip-path:url(#SVGID_92_);fill:#FFFFFF;}
	.st46{clip-path:url(#SVGID_94_);}
	.st47{clip-path:url(#SVGID_96_);fill:#FD5454;}
	.st48{clip-path:url(#SVGID_98_);}
	.st49{opacity:0;clip-path:url(#SVGID_100_);fill:#FFFFFF;}
	.st50{clip-path:url(#SVGID_102_);}
	.st51{clip-path:url(#SVGID_104_);fill:#FFFFFF;}
	.st52{clip-path:url(#SVGID_106_);}
	.st53{opacity:0;clip-path:url(#SVGID_108_);fill:#FFFFFF;}
	.st54{clip-path:url(#SVGID_110_);}
	.st55{clip-path:url(#SVGID_112_);fill:#FD5454;}
	.st56{clip-path:url(#SVGID_114_);}
	.st57{opacity:0;clip-path:url(#SVGID_116_);fill:#FFFFFF;}
	.st58{clip-path:url(#SVGID_118_);}
	.st59{clip-path:url(#SVGID_120_);fill:#FFFFFF;}
	.st60{clip-path:url(#SVGID_122_);}
	.st61{opacity:0;clip-path:url(#SVGID_124_);fill:#FFFFFF;}
	.st62{clip-path:url(#SVGID_126_);}
	.st63{clip-path:url(#SVGID_128_);fill:#FFFFFF;}
	.st64{clip-path:url(#SVGID_130_);}
	.st65{opacity:0;clip-path:url(#SVGID_132_);fill:#FFFFFF;}
	.st66{clip-path:url(#SVGID_134_);}
	.st67{clip-path:url(#SVGID_136_);fill:#FFFFFF;}
	.st68{clip-path:url(#SVGID_138_);}
	.st69{opacity:0;clip-path:url(#SVGID_140_);fill:#FFFFFF;}
	.st70{clip-path:url(#SVGID_142_);}
	.st71{clip-path:url(#SVGID_144_);fill:#FFFFFF;}
	.st72{clip-path:url(#SVGID_146_);}
	.st73{opacity:0;clip-path:url(#SVGID_148_);fill:#FFFFFF;}
	.st74{clip-path:url(#SVGID_150_);}
	.st75{clip-path:url(#SVGID_152_);fill:#FFFFFF;}
	.st76{clip-path:url(#SVGID_154_);}
	.st77{opacity:0;clip-path:url(#SVGID_156_);fill:#FFFFFF;}
	.st78{clip-path:url(#SVGID_158_);}
	.st79{clip-path:url(#SVGID_160_);fill:#FFFFFF;}
	.st80{clip-path:url(#SVGID_162_);}
	.st81{opacity:0;clip-path:url(#SVGID_164_);fill:#FFFFFF;}
	.st82{clip-path:url(#SVGID_166_);}
	.st83{clip-path:url(#SVGID_168_);fill:#7BDB4C;}
</style>
<g id="Artwork_1_1_">
	<g>
		<g>
			<defs>
				<rect id="SVGID_1_" x="150" y="50" width="50" height="50"/>
			</defs>
			<clipPath id="SVGID_2_">
				<use xlink:href="#SVGID_1_"  style="overflow:visible;"/>
			</clipPath>
			<g class="st0">
				<defs>
					<rect id="SVGID_3_" x="-150" y="-891" width="1440" height="1159"/>
				</defs>
				<clipPath id="SVGID_4_">
					<use xlink:href="#SVGID_3_"  style="overflow:visible;"/>
				</clipPath>
				<rect x="145" y="45" class="st1" width="60" height="60"/>
			</g>
		</g>
		<g>
			<defs>
				<path id="SVGID_5_" d="M187.7,67.4c-0.9,0.4-1.9,0.7-2.9,0.8c1-0.6,1.8-1.6,2.2-2.8c-1,0.6-2.1,1-3.2,1.2
					c-0.9-1-2.2-1.6-3.7-1.6c-2.8,0-5.1,2.3-5.1,5c0,0.4,0,0.8,0.1,1.2c-4.2-0.2-7.9-2.2-10.4-5.3c-0.4,0.7-0.7,1.6-0.7,2.5
					c0,1.8,0.9,3.3,2.2,4.2c-0.8,0-1.6-0.3-2.3-0.6v0.1c0,2.4,1.7,4.5,4.1,5c-0.4,0.1-0.9,0.2-1.3,0.2c-0.3,0-0.6,0-1-0.1
					c0.6,2,2.5,3.5,4.7,3.5c-1.7,1.4-3.9,2.2-6.3,2.2c-0.4,0-0.8,0-1.2-0.1c2.2,1.4,4.9,2.3,7.8,2.3c9.3,0,14.4-7.7,14.4-14.4l0-0.7
					C186.1,69.3,187,68.4,187.7,67.4z"/>
			</defs>
			<clipPath id="SVGID_6_">
				<use xlink:href="#SVGID_5_"  style="overflow:visible;"/>
			</clipPath>
			<g class="st2">
				<defs>
					<rect id="SVGID_7_" x="-150" y="-891" width="1440" height="1159"/>
				</defs>
				<clipPath id="SVGID_8_">
					<use xlink:href="#SVGID_7_"  style="overflow:visible;"/>
				</clipPath>
				<rect x="158" y="60" class="st3" width="34.7" height="30"/>
			</g>
		</g>
		<g>
			<defs>
				<rect id="SVGID_9_" x="150" y="100" width="50" height="50"/>
			</defs>
			<clipPath id="SVGID_10_">
				<use xlink:href="#SVGID_9_"  style="overflow:visible;"/>
			</clipPath>
			<g class="st4">
				<defs>
					<rect id="SVGID_11_" x="-150" y="-891" width="1440" height="1159"/>
				</defs>
				<clipPath id="SVGID_12_">
					<use xlink:href="#SVGID_11_"  style="overflow:visible;"/>
				</clipPath>
				<rect x="145" y="95" class="st5" width="60" height="60"/>
			</g>
		</g>
		<g>
			<defs>
				<path id="SVGID_13_" d="M187.7,117.4c-0.9,0.4-1.9,0.7-2.9,0.8c1-0.6,1.8-1.6,2.2-2.8c-1,0.6-2.1,1-3.2,1.2
					c-0.9-1-2.2-1.6-3.7-1.6c-2.8,0-5.1,2.3-5.1,5c0,0.4,0,0.8,0.1,1.2c-4.2-0.2-7.9-2.2-10.4-5.3c-0.4,0.7-0.7,1.6-0.7,2.5
					c0,1.8,0.9,3.3,2.2,4.2c-0.8,0-1.6-0.3-2.3-0.6v0.1c0,2.4,1.7,4.5,4.1,5c-0.4,0.1-0.9,0.2-1.3,0.2c-0.3,0-0.6,0-1-0.1
					c0.6,2,2.5,3.5,4.7,3.5c-1.7,1.4-3.9,2.2-6.3,2.2c-0.4,0-0.8,0-1.2-0.1c2.2,1.4,4.9,2.3,7.8,2.3c9.3,0,14.4-7.7,14.4-14.4l0-0.7
					C186.1,119.3,187,118.4,187.7,117.4z"/>
			</defs>
			<clipPath id="SVGID_14_">
				<use xlink:href="#SVGID_13_"  style="overflow:visible;"/>
			</clipPath>
			<g class="st6">
				<defs>
					<rect id="SVGID_15_" x="-150" y="-891" width="1440" height="1159"/>
				</defs>
				<clipPath id="SVGID_16_">
					<use xlink:href="#SVGID_15_"  style="overflow:visible;"/>
				</clipPath>
				<rect x="158" y="110" class="st7" width="34.7" height="30"/>
			</g>
		</g>
		<g>
			<defs>
				<rect id="SVGID_17_" x="200" y="50" width="50" height="50"/>
			</defs>
			<clipPath id="SVGID_18_">
				<use xlink:href="#SVGID_17_"  style="overflow:visible;"/>
			</clipPath>
			<g class="st8">
				<defs>
					<rect id="SVGID_19_" x="-150" y="-891" width="1440" height="1159"/>
				</defs>
				<clipPath id="SVGID_20_">
					<use xlink:href="#SVGID_19_"  style="overflow:visible;"/>
				</clipPath>
				<rect x="195" y="45" class="st9" width="60" height="60"/>
			</g>
		</g>
		<g>
			<defs>
				<path id="SVGID_21_" d="M225,71.1c-2.2,0-4,1.7-4,3.9c0,2.1,1.8,3.9,4,3.9c2.2,0,4-1.7,4-3.9C229,72.8,227.2,71.1,225,71.1z
					 M232.7,73.5H231c0.2,0.5,0.3,1.1,0.3,1.7c0,3.3-2.8,6-6.2,6c-3.4,0-6.2-2.7-6.2-6c0-0.6,0.1-1.2,0.3-1.7h-1.8v8.4
					c0,0.4,0.4,0.8,0.8,0.8h13.9c0.4,0,0.8-0.4,0.8-0.8L232.7,73.5L232.7,73.5z M229.6,67.2c-0.5,0-0.9,0.4-0.9,0.9v2.2
					c0,0.5,0.4,0.9,0.9,0.9h2.3c0.5,0,0.9-0.4,0.9-0.9v-2.2c0-0.5-0.4-0.9-0.9-0.9H229.6z M217.6,65h14.9c1.4,0,2.6,1,2.6,2.6v14.9
					c0,1.5-1.2,2.6-2.6,2.6h-14.9c-1.4,0-2.6-1-2.6-2.6V67.6C215,66,216.2,65,217.6,65z"/>
			</defs>
			<clipPath id="SVGID_22_">
				<use xlink:href="#SVGID_21_"  style="overflow:visible;"/>
			</clipPath>
			<g class="st10">
				<defs>
					<rect id="SVGID_23_" x="-150" y="-891" width="1440" height="1159"/>
				</defs>
				<clipPath id="SVGID_24_">
					<use xlink:href="#SVGID_23_"  style="overflow:visible;"/>
				</clipPath>
				<rect x="210" y="60" class="st11" width="30" height="30"/>
			</g>
		</g>
		<g>
			<defs>
				<rect id="SVGID_25_" x="200" y="100" width="50" height="50"/>
			</defs>
			<clipPath id="SVGID_26_">
				<use xlink:href="#SVGID_25_"  style="overflow:visible;"/>
			</clipPath>
			<g class="st12">
				<defs>
					<rect id="SVGID_27_" x="-150" y="-891" width="1440" height="1159"/>
				</defs>
				<clipPath id="SVGID_28_">
					<use xlink:href="#SVGID_27_"  style="overflow:visible;"/>
				</clipPath>
				<rect x="195" y="95" class="st13" width="60" height="60"/>
			</g>
		</g>
		<g>
			<defs>
				<path id="SVGID_29_" d="M225,121.1c-2.2,0-4,1.7-4,3.9c0,2.1,1.8,3.9,4,3.9c2.2,0,4-1.7,4-3.9C229,122.8,227.2,121.1,225,121.1z
					 M232.7,123.5H231c0.2,0.5,0.3,1.1,0.3,1.7c0,3.3-2.8,6-6.2,6c-3.4,0-6.2-2.7-6.2-6c0-0.6,0.1-1.2,0.3-1.7h-1.8v8.4
					c0,0.4,0.4,0.8,0.8,0.8h13.9c0.4,0,0.8-0.4,0.8-0.8L232.7,123.5L232.7,123.5z M229.6,117.2c-0.5,0-0.9,0.4-0.9,0.9v2.2
					c0,0.5,0.4,0.9,0.9,0.9h2.3c0.5,0,0.9-0.4,0.9-0.9v-2.2c0-0.5-0.4-0.9-0.9-0.9H229.6z M217.6,115h14.9c1.4,0,2.6,1,2.6,2.6v14.9
					c0,1.5-1.2,2.6-2.6,2.6h-14.9c-1.4,0-2.6-1-2.6-2.6v-14.9C215,116,216.2,115,217.6,115z"/>
			</defs>
			<clipPath id="SVGID_30_">
				<use xlink:href="#SVGID_29_"  style="overflow:visible;"/>
			</clipPath>
			<g class="st14">
				<defs>
					<rect id="SVGID_31_" x="-150" y="-891" width="1440" height="1159"/>
				</defs>
				<clipPath id="SVGID_32_">
					<use xlink:href="#SVGID_31_"  style="overflow:visible;"/>
				</clipPath>
				<rect x="210" y="110" class="st15" width="30" height="30"/>
			</g>
		</g>
		<g>
			<defs>
				<rect id="SVGID_33_" x="250" y="50" width="50" height="50"/>
			</defs>
			<clipPath id="SVGID_34_">
				<use xlink:href="#SVGID_33_"  style="overflow:visible;"/>
			</clipPath>
			<g class="st16">
				<defs>
					<rect id="SVGID_35_" x="-150" y="-891" width="1440" height="1159"/>
				</defs>
				<clipPath id="SVGID_36_">
					<use xlink:href="#SVGID_35_"  style="overflow:visible;"/>
				</clipPath>
				<rect x="245" y="45" class="st17" width="60" height="60"/>
			</g>
		</g>
		<g>
			<defs>
				<path id="SVGID_37_" d="M273,69c0-1.1,0.9-2,2-2c1.1,0,2,0.9,2,2v4c0,1.1-0.9,2-2,2c-1.1,0-2-0.9-2-2V69z M266,68.5v13
					c0,4.7,4,8.5,9,8.5c5,0,9-3.8,9-8.5v-13c0-4.7-4-8.5-9-8.5C270,60,266,63.8,266,68.5z M264,68.5c0-5.8,4.9-10.5,11-10.5
					c6.1,0,11,4.7,11,10.5v13c0,5.8-4.9,10.5-11,10.5c-6.1,0-11-4.7-11-10.5V68.5z"/>
			</defs>
			<clipPath id="SVGID_38_">
				<use xlink:href="#SVGID_37_"  style="overflow:visible;"/>
			</clipPath>
			<g class="st18">
				<defs>
					<rect id="SVGID_39_" x="-150" y="-891" width="1440" height="1159"/>
				</defs>
				<clipPath id="SVGID_40_">
					<use xlink:href="#SVGID_39_"  style="overflow:visible;"/>
				</clipPath>
				<rect x="259" y="53" class="st19" width="32" height="44"/>
			</g>
		</g>
		<g>
			<defs>
				<rect id="SVGID_41_" x="250" y="100" width="50" height="50"/>
			</defs>
			<clipPath id="SVGID_42_">
				<use xlink:href="#SVGID_41_"  style="overflow:visible;"/>
			</clipPath>
			<g class="st20">
				<defs>
					<rect id="SVGID_43_" x="-150" y="-891" width="1440" height="1159"/>
				</defs>
				<clipPath id="SVGID_44_">
					<use xlink:href="#SVGID_43_"  style="overflow:visible;"/>
				</clipPath>
				<rect x="245" y="95" class="st21" width="60" height="60"/>
			</g>
		</g>
		<g>
			<defs>
				<path id="SVGID_45_" d="M273,119c0-1.1,0.9-2,2-2c1.1,0,2,0.9,2,2v4c0,1.1-0.9,2-2,2c-1.1,0-2-0.9-2-2V119z M266,118.5v13
					c0,4.7,4,8.5,9,8.5c5,0,9-3.8,9-8.5v-13c0-4.7-4-8.5-9-8.5C270,110,266,113.8,266,118.5z M264,118.5c0-5.8,4.9-10.5,11-10.5
					c6.1,0,11,4.7,11,10.5v13c0,5.8-4.9,10.5-11,10.5c-6.1,0-11-4.7-11-10.5V118.5z"/>
			</defs>
			<clipPath id="SVGID_46_">
				<use xlink:href="#SVGID_45_"  style="overflow:visible;"/>
			</clipPath>
			<g class="st22">
				<defs>
					<rect id="SVGID_47_" x="-150" y="-891" width="1440" height="1159"/>
				</defs>
				<clipPath id="SVGID_48_">
					<use xlink:href="#SVGID_47_"  style="overflow:visible;"/>
				</clipPath>
				<rect x="259" y="103" class="st23" width="32" height="44"/>
			</g>
		</g>
		<g>
			<defs>
				<rect id="SVGID_49_" x="300" y="50" width="50" height="50"/>
			</defs>
			<clipPath id="SVGID_50_">
				<use xlink:href="#SVGID_49_"  style="overflow:visible;"/>
			</clipPath>
			<g class="st24">
				<defs>
					<rect id="SVGID_51_" x="-150" y="-891" width="1440" height="1159"/>
				</defs>
				<clipPath id="SVGID_52_">
					<use xlink:href="#SVGID_51_"  style="overflow:visible;"/>
				</clipPath>
				<rect x="295" y="45" class="st25" width="60" height="60"/>
			</g>
		</g>
		<g>
			<defs>
				<path id="SVGID_53_" d="M326,83.3c0,0-0.5,0.7-1,0.7c-0.4,0-1-0.7-1-0.7l0,0l-4.8-5.4c-0.3-0.4-0.3-1.2,0-1.6
					c0.3-0.4,0.9-0.4,1.3,0l4.5,4.5l4.5-4.5c0.3-0.4,0.9-0.4,1.3,0c0.3,0.4,0.3,1.2,0,1.6L326,83.3L326,83.3z M326,74.3
					c0,0-0.5,0.7-1,0.7c-0.4,0-1-0.7-1-0.7l0,0l-4.8-5.4c-0.3-0.4-0.3-1.2,0-1.6c0.3-0.4,0.9-0.4,1.3,0l4.5,4.5l4.5-4.5
					c0.3-0.4,0.9-0.4,1.3,0c0.3,0.4,0.3,1.2,0,1.6L326,74.3L326,74.3z"/>
			</defs>
			<clipPath id="SVGID_54_">
				<use xlink:href="#SVGID_53_"  style="overflow:visible;"/>
			</clipPath>
			<g class="st26">
				<defs>
					<rect id="SVGID_55_" x="-150" y="-891" width="1440" height="1159"/>
				</defs>
				<clipPath id="SVGID_56_">
					<use xlink:href="#SVGID_55_"  style="overflow:visible;"/>
				</clipPath>
				<rect x="314" y="62" class="st27" width="22.1" height="27"/>
			</g>
		</g>
		<g>
			<defs>
				<rect id="SVGID_57_" x="300" y="100" width="50" height="50"/>
			</defs>
			<clipPath id="SVGID_58_">
				<use xlink:href="#SVGID_57_"  style="overflow:visible;"/>
			</clipPath>
			<g class="st28">
				<defs>
					<rect id="SVGID_59_" x="-150" y="-891" width="1440" height="1159"/>
				</defs>
				<clipPath id="SVGID_60_">
					<use xlink:href="#SVGID_59_"  style="overflow:visible;"/>
				</clipPath>
				<rect x="295" y="95" class="st29" width="60" height="60"/>
			</g>
		</g>
		<g>
			<defs>
				<path id="SVGID_61_" d="M326,133.3c0,0-0.5,0.7-1,0.7c-0.4,0-1-0.7-1-0.7l0,0l-4.8-5.4c-0.3-0.4-0.3-1.2,0-1.6
					c0.3-0.4,0.9-0.4,1.3,0l4.5,4.5l4.5-4.5c0.3-0.4,0.9-0.4,1.3,0c0.3,0.4,0.3,1.2,0,1.6L326,133.3L326,133.3z M326,124.3
					c0,0-0.5,0.7-1,0.7c-0.4,0-1-0.7-1-0.7l0,0l-4.8-5.4c-0.3-0.4-0.3-1.2,0-1.6c0.3-0.4,0.9-0.4,1.3,0l4.5,4.5l4.5-4.5
					c0.3-0.4,0.9-0.4,1.3,0c0.3,0.4,0.3,1.2,0,1.6L326,124.3L326,124.3z"/>
			</defs>
			<clipPath id="SVGID_62_">
				<use xlink:href="#SVGID_61_"  style="overflow:visible;"/>
			</clipPath>
			<g class="st30">
				<defs>
					<rect id="SVGID_63_" x="-150" y="-891" width="1440" height="1159"/>
				</defs>
				<clipPath id="SVGID_64_">
					<use xlink:href="#SVGID_63_"  style="overflow:visible;"/>
				</clipPath>
				<rect x="314" y="112" class="st31" width="22.1" height="27"/>
			</g>
		</g>
		<g>
			<defs>
				<rect id="SVGID_65_" x="50" y="50" width="50" height="50"/>
			</defs>
			<clipPath id="SVGID_66_">
				<use xlink:href="#SVGID_65_"  style="overflow:visible;"/>
			</clipPath>
			<g class="st32">
				<defs>
					<rect id="SVGID_67_" x="-150" y="-891" width="1440" height="1159"/>
				</defs>
				<clipPath id="SVGID_68_">
					<use xlink:href="#SVGID_67_"  style="overflow:visible;"/>
				</clipPath>
				<rect x="45" y="45" class="st33" width="60" height="60"/>
			</g>
		</g>
		<g>
			<defs>
				<polygon id="SVGID_69_" points="74.7,76.8 65.1,86.3 63,84.2 72.5,74.7 63,65.1 65.1,63 74.7,72.5 84.2,63 86.3,65.1 76.8,74.7 
					86.3,84.2 84.2,86.3 				"/>
			</defs>
			<clipPath id="SVGID_70_">
				<use xlink:href="#SVGID_69_"  style="overflow:visible;"/>
			</clipPath>
			<g class="st34">
				<defs>
					<rect id="SVGID_71_" x="-150" y="-891" width="1440" height="1159"/>
				</defs>
				<clipPath id="SVGID_72_">
					<use xlink:href="#SVGID_71_"  style="overflow:visible;"/>
				</clipPath>
				<rect x="58" y="58" class="st35" width="33.3" height="33.3"/>
			</g>
		</g>
		<g>
			<defs>
				<rect id="SVGID_73_" x="50" y="100" width="50" height="50"/>
			</defs>
			<clipPath id="SVGID_74_">
				<use xlink:href="#SVGID_73_"  style="overflow:visible;"/>
			</clipPath>
			<g class="st36">
				<defs>
					<rect id="SVGID_75_" x="-150" y="-891" width="1440" height="1159"/>
				</defs>
				<clipPath id="SVGID_76_">
					<use xlink:href="#SVGID_75_"  style="overflow:visible;"/>
				</clipPath>
				<rect x="45" y="95" class="st37" width="60" height="60"/>
			</g>
		</g>
		<g>
			<defs>
				<polygon id="SVGID_77_" points="74.7,126.8 65.1,136.3 63,134.2 72.5,124.7 63,115.1 65.1,113 74.7,122.5 84.2,113 86.3,115.1 
					76.8,124.7 86.3,134.2 84.2,136.3 				"/>
			</defs>
			<clipPath id="SVGID_78_">
				<use xlink:href="#SVGID_77_"  style="overflow:visible;"/>
			</clipPath>
			<g class="st38">
				<defs>
					<rect id="SVGID_79_" x="-150" y="-891" width="1440" height="1159"/>
				</defs>
				<clipPath id="SVGID_80_">
					<use xlink:href="#SVGID_79_"  style="overflow:visible;"/>
				</clipPath>
				<rect x="58" y="108" class="st39" width="33.3" height="33.3"/>
			</g>
		</g>
		<g>
			<defs>
				<rect id="SVGID_81_" y="50" width="50" height="50"/>
			</defs>
			<clipPath id="SVGID_82_">
				<use xlink:href="#SVGID_81_"  style="overflow:visible;"/>
			</clipPath>
			<g class="st40">
				<defs>
					<rect id="SVGID_83_" x="-150" y="-891" width="1440" height="1159"/>
				</defs>
				<clipPath id="SVGID_84_">
					<use xlink:href="#SVGID_83_"  style="overflow:visible;"/>
				</clipPath>
				<rect x="-5" y="45" class="st41" width="60" height="60"/>
			</g>
		</g>
		<g>
			<defs>
				<path id="SVGID_85_" d="M13,82.5h24v3H13V82.5z M13,73.5h24v3H13V73.5z M13,64h24v3H13V64z"/>
			</defs>
			<clipPath id="SVGID_86_">
				<use xlink:href="#SVGID_85_"  style="overflow:visible;"/>
			</clipPath>
			<g class="st42">
				<defs>
					<rect id="SVGID_87_" x="-150" y="-891" width="1440" height="1159"/>
				</defs>
				<clipPath id="SVGID_88_">
					<use xlink:href="#SVGID_87_"  style="overflow:visible;"/>
				</clipPath>
				<rect x="8" y="59" class="st43" width="34" height="31.5"/>
			</g>
		</g>
		<g>
			<defs>
				<rect id="SVGID_89_" y="100" width="50" height="50"/>
			</defs>
			<clipPath id="SVGID_90_">
				<use xlink:href="#SVGID_89_"  style="overflow:visible;"/>
			</clipPath>
			<g class="st44">
				<defs>
					<rect id="SVGID_91_" x="-150" y="-891" width="1440" height="1159"/>
				</defs>
				<clipPath id="SVGID_92_">
					<use xlink:href="#SVGID_91_"  style="overflow:visible;"/>
				</clipPath>
				<rect x="-5" y="95" class="st45" width="60" height="60"/>
			</g>
		</g>
		<g>
			<defs>
				<path id="SVGID_93_" d="M13,132.5h24v3H13V132.5z M13,123.5h24v3H13V123.5z M13,114h24v3H13V114z"/>
			</defs>
			<clipPath id="SVGID_94_">
				<use xlink:href="#SVGID_93_"  style="overflow:visible;"/>
			</clipPath>
			<g class="st46">
				<defs>
					<rect id="SVGID_95_" x="-150" y="-891" width="1440" height="1159"/>
				</defs>
				<clipPath id="SVGID_96_">
					<use xlink:href="#SVGID_95_"  style="overflow:visible;"/>
				</clipPath>
				<rect x="8" y="109" class="st47" width="34" height="31.5"/>
			</g>
		</g>
		<g>
			<defs>
				<rect id="SVGID_97_" x="100" y="50" width="50" height="50"/>
			</defs>
			<clipPath id="SVGID_98_">
				<use xlink:href="#SVGID_97_"  style="overflow:visible;"/>
			</clipPath>
			<g class="st48">
				<defs>
					<rect id="SVGID_99_" x="-150" y="-891" width="1440" height="1159"/>
				</defs>
				<clipPath id="SVGID_100_">
					<use xlink:href="#SVGID_99_"  style="overflow:visible;"/>
				</clipPath>
				<rect x="95" y="45" class="st49" width="60" height="60"/>
			</g>
		</g>
		<g>
			<defs>
				<path id="SVGID_101_" d="M130.4,65l-2.6,0c-2.9,0-4.8,1.9-4.8,4.9v2.3h-2.6c-0.2,0-0.4,0.2-0.4,0.4v3.3c0,0.2,0.2,0.4,0.4,0.4
					h2.6v8.3c0,0.2,0.2,0.4,0.4,0.4h3.4c0.2,0,0.4-0.2,0.4-0.4v-8.3h3c0.2,0,0.4-0.2,0.4-0.4l0-3.3c0-0.1,0-0.2-0.1-0.3
					c-0.1-0.1-0.2-0.1-0.3-0.1h-3.1v-1.9c0-0.9,0.2-1.4,1.4-1.4l1.7,0c0.2,0,0.4-0.2,0.4-0.4v-3.1C130.8,65.2,130.6,65,130.4,65z"/>
			</defs>
			<clipPath id="SVGID_102_">
				<use xlink:href="#SVGID_101_"  style="overflow:visible;"/>
			</clipPath>
			<g class="st50">
				<defs>
					<rect id="SVGID_103_" x="-150" y="-891" width="1440" height="1159"/>
				</defs>
				<clipPath id="SVGID_104_">
					<use xlink:href="#SVGID_103_"  style="overflow:visible;"/>
				</clipPath>
				<rect x="115" y="60" class="st51" width="20.8" height="30"/>
			</g>
		</g>
		<g>
			<defs>
				<rect id="SVGID_105_" x="100" y="100" width="50" height="50"/>
			</defs>
			<clipPath id="SVGID_106_">
				<use xlink:href="#SVGID_105_"  style="overflow:visible;"/>
			</clipPath>
			<g class="st52">
				<defs>
					<rect id="SVGID_107_" x="-150" y="-891" width="1440" height="1159"/>
				</defs>
				<clipPath id="SVGID_108_">
					<use xlink:href="#SVGID_107_"  style="overflow:visible;"/>
				</clipPath>
				<rect x="95" y="95" class="st53" width="60" height="60"/>
			</g>
		</g>
		<g>
			<defs>
				<path id="SVGID_109_" d="M130.4,115l-2.6,0c-2.9,0-4.8,1.9-4.8,4.9v2.3h-2.6c-0.2,0-0.4,0.2-0.4,0.4v3.3c0,0.2,0.2,0.4,0.4,0.4
					h2.6v8.3c0,0.2,0.2,0.4,0.4,0.4h3.4c0.2,0,0.4-0.2,0.4-0.4v-8.3h3c0.2,0,0.4-0.2,0.4-0.4l0-3.3c0-0.1,0-0.2-0.1-0.3
					c-0.1-0.1-0.2-0.1-0.3-0.1h-3.1v-1.9c0-0.9,0.2-1.4,1.4-1.4l1.7,0c0.2,0,0.4-0.2,0.4-0.4v-3.1C130.8,115.2,130.6,115,130.4,115z
					"/>
			</defs>
			<clipPath id="SVGID_110_">
				<use xlink:href="#SVGID_109_"  style="overflow:visible;"/>
			</clipPath>
			<g class="st54">
				<defs>
					<rect id="SVGID_111_" x="-150" y="-891" width="1440" height="1159"/>
				</defs>
				<clipPath id="SVGID_112_">
					<use xlink:href="#SVGID_111_"  style="overflow:visible;"/>
				</clipPath>
				<rect x="115" y="110" class="st55" width="20.8" height="30"/>
			</g>
		</g>
		<g>
			<defs>
				<rect id="SVGID_113_" x="200" width="50" height="50"/>
			</defs>
			<clipPath id="SVGID_114_">
				<use xlink:href="#SVGID_113_"  style="overflow:visible;"/>
			</clipPath>
			<g class="st56">
				<defs>
					<rect id="SVGID_115_" x="-150" y="-891" width="1440" height="1159"/>
				</defs>
				<clipPath id="SVGID_116_">
					<use xlink:href="#SVGID_115_"  style="overflow:visible;"/>
				</clipPath>
				<rect x="195" y="-5" class="st57" width="60" height="60"/>
			</g>
		</g>
		<g>
			<defs>
				<path id="SVGID_117_" d="M224,30.5c0-0.2,0-0.4,0.1-0.6c0.1-0.2,0.2-0.3,0.3-0.5s0.3-0.2,0.5-0.3c0.2-0.1,0.4-0.1,0.6-0.1
					c0.2,0,0.4,0,0.6,0.1c0.2,0.1,0.3,0.2,0.5,0.3c0.1,0.1,0.2,0.3,0.3,0.5c0.1,0.2,0.1,0.4,0.1,0.6s0,0.4-0.1,0.6
					c-0.1,0.2-0.2,0.3-0.3,0.5c-0.1,0.1-0.3,0.2-0.5,0.3c-0.2,0.1-0.4,0.1-0.6,0.1c-0.2,0-0.4,0-0.6-0.1c-0.2-0.1-0.3-0.2-0.5-0.3
					s-0.2-0.3-0.3-0.5C224,30.9,224,30.7,224,30.5z M227,18v5.5c0,0.6,0,1.2-0.1,1.7c-0.1,0.6-0.2,1.2-0.3,1.8h-2.2
					c-0.1-0.6-0.2-1.2-0.3-1.8c-0.1-0.6-0.1-1.2-0.1-1.7V18H227z"/>
			</defs>
			<clipPath id="SVGID_118_">
				<use xlink:href="#SVGID_117_"  style="overflow:visible;"/>
			</clipPath>
			<g class="st58">
				<defs>
					<rect id="SVGID_119_" x="-150" y="-891" width="1440" height="1159"/>
				</defs>
				<clipPath id="SVGID_120_">
					<use xlink:href="#SVGID_119_"  style="overflow:visible;"/>
				</clipPath>
				<rect x="219" y="13" class="st59" width="13" height="24"/>
			</g>
		</g>
		<g>
			<defs>
				<rect id="SVGID_121_" x="100" width="50" height="50"/>
			</defs>
			<clipPath id="SVGID_122_">
				<use xlink:href="#SVGID_121_"  style="overflow:visible;"/>
			</clipPath>
			<g class="st60">
				<defs>
					<rect id="SVGID_123_" x="-150" y="-891" width="1440" height="1159"/>
				</defs>
				<clipPath id="SVGID_124_">
					<use xlink:href="#SVGID_123_"  style="overflow:visible;"/>
				</clipPath>
				<rect x="95" y="-5" class="st61" width="60" height="60"/>
			</g>
		</g>
		<g>
			<defs>
				<path id="SVGID_125_" d="M128.3,26c0,0,0.7-0.5,0.7-1c0-0.4-0.7-1-0.7-1l0,0l-5.4-4.8c-0.4-0.3-1.2-0.3-1.6,0
					c-0.4,0.3-0.4,0.9,0,1.3l4.5,4.5l-4.5,4.5c-0.4,0.3-0.4,0.9,0,1.3c0.4,0.3,1.2,0.3,1.6,0L128.3,26L128.3,26"/>
			</defs>
			<clipPath id="SVGID_126_">
				<use xlink:href="#SVGID_125_"  style="overflow:visible;"/>
			</clipPath>
			<g class="st62">
				<defs>
					<rect id="SVGID_127_" x="-150" y="-891" width="1440" height="1159"/>
				</defs>
				<clipPath id="SVGID_128_">
					<use xlink:href="#SVGID_127_"  style="overflow:visible;"/>
				</clipPath>
				<rect x="116" y="14" class="st63" width="18" height="22.1"/>
			</g>
		</g>
		<g>
			<defs>
				<rect id="SVGID_129_" x="150" width="50" height="50"/>
			</defs>
			<clipPath id="SVGID_130_">
				<use xlink:href="#SVGID_129_"  style="overflow:visible;"/>
			</clipPath>
			<g class="st64">
				<defs>
					<rect id="SVGID_131_" x="-150" y="-891" width="1440" height="1159"/>
				</defs>
				<clipPath id="SVGID_132_">
					<use xlink:href="#SVGID_131_"  style="overflow:visible;"/>
				</clipPath>
				<rect x="145" y="-5" class="st65" width="60" height="60"/>
			</g>
		</g>
		<g>
			<defs>
				<path id="SVGID_133_" d="M174,28.3c0,0,0.5,0.7,1,0.7c0.4,0,1-0.7,1-0.7l0,0l4.8-5.4c0.3-0.4,0.3-1.2,0-1.6
					c-0.3-0.4-0.9-0.4-1.3,0l-4.5,4.5l-4.5-4.5c-0.3-0.4-0.9-0.4-1.3,0c-0.3,0.4-0.3,1.2,0,1.6L174,28.3L174,28.3"/>
			</defs>
			<clipPath id="SVGID_134_">
				<use xlink:href="#SVGID_133_"  style="overflow:visible;"/>
			</clipPath>
			<g class="st66">
				<defs>
					<rect id="SVGID_135_" x="-150" y="-891" width="1440" height="1159"/>
				</defs>
				<clipPath id="SVGID_136_">
					<use xlink:href="#SVGID_135_"  style="overflow:visible;"/>
				</clipPath>
				<rect x="164" y="16" class="st67" width="22.1" height="18"/>
			</g>
		</g>
		<g>
			<defs>
				<rect id="SVGID_137_" x="250" width="50" height="50"/>
			</defs>
			<clipPath id="SVGID_138_">
				<use xlink:href="#SVGID_137_"  style="overflow:visible;"/>
			</clipPath>
			<g class="st68">
				<defs>
					<rect id="SVGID_139_" x="-150" y="-891" width="1440" height="1159"/>
				</defs>
				<clipPath id="SVGID_140_">
					<use xlink:href="#SVGID_139_"  style="overflow:visible;"/>
				</clipPath>
				<rect x="245" y="-5" class="st69" width="60" height="60"/>
			</g>
		</g>
		<g>
			<defs>
				<polygon id="SVGID_141_" points="272.2,31.6 271.9,31.9 266,26 268,24 272,28.1 282,18 284,20 272.3,31.7 				"/>
			</defs>
			<clipPath id="SVGID_142_">
				<use xlink:href="#SVGID_141_"  style="overflow:visible;"/>
			</clipPath>
			<g class="st70">
				<defs>
					<rect id="SVGID_143_" x="-150" y="-891" width="1440" height="1159"/>
				</defs>
				<clipPath id="SVGID_144_">
					<use xlink:href="#SVGID_143_"  style="overflow:visible;"/>
				</clipPath>
				<rect x="261" y="13" class="st71" width="28" height="23.9"/>
			</g>
		</g>
		<g>
			<defs>
				<rect id="SVGID_145_" x="50" width="50" height="50"/>
			</defs>
			<clipPath id="SVGID_146_">
				<use xlink:href="#SVGID_145_"  style="overflow:visible;"/>
			</clipPath>
			<g class="st72">
				<defs>
					<rect id="SVGID_147_" x="-150" y="-891" width="1440" height="1159"/>
				</defs>
				<clipPath id="SVGID_148_">
					<use xlink:href="#SVGID_147_"  style="overflow:visible;"/>
				</clipPath>
				<rect x="45" y="-5" class="st73" width="60" height="60"/>
			</g>
		</g>
		<g>
			<defs>
				<path id="SVGID_149_" d="M71.7,26c0,0-0.7-0.5-0.7-1c0-0.4,0.7-1,0.7-1l0,0l5.4-4.8c0.4-0.3,1.2-0.3,1.6,0
					c0.4,0.3,0.4,0.9,0,1.3L74.2,25l4.5,4.5c0.4,0.3,0.4,0.9,0,1.3c-0.4,0.3-1.2,0.3-1.6,0L71.7,26L71.7,26"/>
			</defs>
			<clipPath id="SVGID_150_">
				<use xlink:href="#SVGID_149_"  style="overflow:visible;"/>
			</clipPath>
			<g class="st74">
				<defs>
					<rect id="SVGID_151_" x="-150" y="-891" width="1440" height="1159"/>
				</defs>
				<clipPath id="SVGID_152_">
					<use xlink:href="#SVGID_151_"  style="overflow:visible;"/>
				</clipPath>
				<rect x="66" y="14" class="st75" width="18" height="22.1"/>
			</g>
		</g>
		<g>
			<defs>
				<rect id="SVGID_153_" width="50" height="50"/>
			</defs>
			<clipPath id="SVGID_154_">
				<use xlink:href="#SVGID_153_"  style="overflow:visible;"/>
			</clipPath>
			<g class="st76">
				<defs>
					<rect id="SVGID_155_" x="-150" y="-891" width="1440" height="1159"/>
				</defs>
				<clipPath id="SVGID_156_">
					<use xlink:href="#SVGID_155_"  style="overflow:visible;"/>
				</clipPath>
				<rect x="-5" y="-5" class="st77" width="60" height="60"/>
			</g>
		</g>
		<g>
			<defs>
				<polyline id="SVGID_157_" points="15.4,41 9,34.6 34.6,9 41,15.4 15.4,41 				"/>
			</defs>
			<clipPath id="SVGID_158_">
				<use xlink:href="#SVGID_157_"  style="overflow:visible;"/>
			</clipPath>
			<g class="st78">
				<defs>
					<rect id="SVGID_159_" x="-150" y="-891" width="1440" height="1159"/>
				</defs>
				<clipPath id="SVGID_160_">
					<use xlink:href="#SVGID_159_"  style="overflow:visible;"/>
				</clipPath>
				<rect x="4" y="4" class="st79" width="42" height="42"/>
			</g>
		</g>
		<g>
			<defs>
				<rect id="SVGID_161_" x="300" width="50" height="50"/>
			</defs>
			<clipPath id="SVGID_162_">
				<use xlink:href="#SVGID_161_"  style="overflow:visible;"/>
			</clipPath>
			<g class="st80">
				<defs>
					<rect id="SVGID_163_" x="-150" y="-891" width="1440" height="1159"/>
				</defs>
				<clipPath id="SVGID_164_">
					<use xlink:href="#SVGID_163_"  style="overflow:visible;"/>
				</clipPath>
				<rect x="295" y="-5" class="st81" width="60" height="60"/>
			</g>
		</g>
		<g>
			<defs>
				<polygon id="SVGID_165_" points="320.5,33.8 320.2,34.2 312.3,26.4 314.9,23.8 320.3,29.1 333.7,15.7 336.3,18.3 320.7,33.9 
									"/>
			</defs>
			<clipPath id="SVGID_166_">
				<use xlink:href="#SVGID_165_"  style="overflow:visible;"/>
			</clipPath>
			<g class="st82">
				<defs>
					<rect id="SVGID_167_" x="-150" y="-891" width="1440" height="1159"/>
				</defs>
				<clipPath id="SVGID_168_">
					<use xlink:href="#SVGID_167_"  style="overflow:visible;"/>
				</clipPath>
				<rect x="307.3" y="10.7" class="st83" width="34" height="28.5"/>
			</g>
		</g>
	</g>
</g>
</svg>
